<svg xmlns="http://www.w3.org/2000/svg" viewBox="0 0 101.56 101.52"><defs><style>.cls-1{font-size:10px;font-family:AdobeMyungjoStd-Medium-KSCpc-EUC-H, Adobe Myungjo Std;}</style></defs><g id="레이어_2" data-name="레이어 2"><g id="레이어_1-2" data-name="레이어 1"><text class="cls-1" transform="matrix(0.99, -0.11, 0.11, 0.99, 43.48, 9.26)">s</text><text class="cls-1" transform="translate(48.65 8.68) rotate(0.93)">c</text><text class="cls-1" transform="translate(53.85 8.77) rotate(7.24)">r</text><text class="cls-1" transform="matrix(0.97, 0.24, -0.24, 0.97, 58.19, 9.27)">o</text><text class="cls-1" transform="translate(63.67 10.71) rotate(19.84)">l</text><text class="cls-1" transform="matrix(0.92, 0.4, -0.4, 0.92, 66.29, 11.65)">l</text><text class="cls-1" transform="matrix(0.88, 0.47, -0.47, 0.88, 68.84, 12.76)"> </text><text class="cls-1" transform="translate(71.66 14.17) rotate(33.48)">s</text><text class="cls-1" transform="translate(76.01 17.04) rotate(40.56)">c</text><text class="cls-1" transform="translate(79.96 20.43) rotate(47.05)">r</text><text class="cls-1" transform="matrix(0.59, 0.81, -0.81, 0.59, 82.97, 23.59)">o</text><text class="cls-1" transform="translate(86.26 28.2) rotate(59.54)">l</text><text class="cls-1" transform="translate(87.68 30.61) rotate(63.36)">l</text><text class="cls-1" transform="translate(88.93 33.07) rotate(67.42)"> </text><text class="cls-1" transform="matrix(0.29, 0.96, -0.96, 0.29, 90.21, 35.98)">s</text><text class="cls-1" transform="matrix(0.17, 0.99, -0.99, 0.17, 91.72, 40.94)">c</text><text class="cls-1" transform="matrix(0.06, 1, -1, 0.06, 92.58, 46.07)">r</text><text class="cls-1" transform="translate(92.87 50.44) rotate(93.54)">o</text><text class="cls-1" transform="translate(92.46 56.07) rotate(99.23)">l</text><text class="cls-1" transform="translate(92.02 58.83) rotate(103.07)">l</text><text class="cls-1" transform="translate(91.4 61.56) rotate(107.19)"> </text><text class="cls-1" transform="matrix(-0.39, 0.92, -0.92, -0.39, 90.53, 64.58)">s</text><text class="cls-1" transform="matrix(-0.5, 0.87, -0.87, -0.5, 88.52, 69.37)">c</text><text class="cls-1" transform="matrix(-0.6, 0.8, -0.8, -0.6, 85.89, 73.88)">r</text><text class="cls-1" transform="translate(83.33 77.42) rotate(133.34)">o</text><text class="cls-1" transform="translate(79.4 81.48) rotate(139.01)">l</text><text class="cls-1" transform="translate(77.29 83.33) rotate(142.82)">l</text><text class="cls-1" transform="translate(75.1 85) rotate(146.86)"> </text><text class="cls-1" transform="translate(72.46 86.79) rotate(152.62)">s</text><text class="cls-1" transform="matrix(-0.94, 0.35, -0.35, -0.94, 67.87, 89.19)">c</text><text class="cls-1" transform="translate(62.99 90.98) rotate(166.29)">r</text><text class="cls-1" transform="translate(58.75 92.06) rotate(173.12)">o</text><text class="cls-1" transform="matrix(-1, 0.02, -0.02, -1, 53.11, 92.68)">l</text><text class="cls-1" transform="translate(50.33 92.74) rotate(-177.46)">l</text><text class="cls-1" transform="matrix(-0.99, -0.12, 0.12, -0.99, 47.54, 92.63)"> </text><text class="cls-1" transform="translate(44.41 92.33) rotate(-167.67)">s</text><text class="cls-1" transform="translate(39.34 91.23) rotate(-160.55)">c</text><text class="cls-1" transform="translate(34.42 89.48) rotate(-153.97)">r</text><text class="cls-1" transform="translate(30.48 87.61) rotate(-147.16)">o</text><text class="cls-1" transform="translate(25.76 84.49) rotate(-141.45)">l</text><text class="cls-1" transform="translate(23.56 82.75) rotate(-137.65)">l</text><text class="cls-1" transform="matrix(-0.69, -0.72, 0.72, -0.69, 21.5, 80.88)"> </text><text class="cls-1" transform="translate(19.28 78.63) rotate(-127.91)">s</text><text class="cls-1" transform="translate(16.08 74.55) rotate(-120.85)">c</text><text class="cls-1" transform="translate(13.43 70.09) rotate(-114.33)">r</text><text class="cls-1" transform="matrix(-0.3, -0.95, 0.95, -0.3, 11.57, 66.11)">o</text><text class="cls-1" transform="matrix(-0.2, -0.98, 0.98, -0.2, 9.94, 60.7)">l</text><text class="cls-1" transform="matrix(-0.14, -0.99, 0.99, -0.14, 9.37, 57.97)">l</text><text class="cls-1" transform="matrix(-0.07, -1, 1, -0.07, 8.98, 55.21)"> </text><text class="cls-1" transform="matrix(0.03, -1, 1, 0.03, 8.71, 52.07)">s</text><text class="cls-1" transform="translate(8.86 46.87) rotate(-81.13)">c</text><text class="cls-1" transform="translate(9.67 41.74) rotate(-74.59)">r</text><text class="cls-1" transform="translate(10.78 37.51) rotate(-67.73)">o</text><text class="cls-1" transform="translate(12.99 32.29) rotate(-61.97)">l</text><text class="cls-1" transform="matrix(0.53, -0.85, 0.85, 0.53, 14.3, 29.83)">l</text><text class="cls-1" transform="translate(15.75 27.47) rotate(-54.11)"> </text><text class="cls-1" transform="matrix(0.66, -0.75, 0.75, 0.66, 17.55, 24.88)">s</text><text class="cls-1" transform="matrix(0.75, -0.66, 0.66, 0.75, 21, 20.98)">c</text><text class="cls-1" transform="matrix(0.82, -0.57, 0.57, 0.82, 24.92, 17.54)">r</text><text class="cls-1" transform="translate(28.49 14.99) rotate(-28.03)">o</text><text class="cls-1" transform="matrix(0.93, -0.38, 0.38, 0.93, 33.49, 12.4)">l</text><text class="cls-1" transform="translate(36.08 11.34) rotate(-18.47)">l</text></g></g></svg>